<svg xmlns="http://www.w3.org/2000/svg" xmlns:xlink="http://www.w3.org/1999/xlink" width="25px" height="25px"
    viewBox="0 0 25 25" version="1.1">
    <g id="surface1">
        <path style=" stroke:none;fill-rule:nonzero;fill:rgb(100%,100%,100%);fill-opacity:1;"
            d="M 19.582031 8.140625 C 19.023438 7.175781 12.15625 3.199219 11.039062 3.199219 C 9.921875 3.199219 3.054688 7.167969 2.496094 8.140625 C 1.941406 9.113281 1.9375 17.046875 2.496094 18.019531 C 3.058594 18.992188 9.921875 22.960938 11.039062 22.960938 C 12.15625 22.960938 19.023438 18.988281 19.582031 18.019531 C 20.140625 17.050781 20.140625 9.101562 19.582031 8.140625 Z M 13.351562 19.1875 C 13.199219 19.1875 11.773438 17.804688 11.886719 17.691406 C 11.921875 17.660156 12.128906 17.636719 12.5625 17.621094 C 12.5625 16.609375 12.585938 14.976562 12.601562 14.289062 C 12.601562 14.214844 12.582031 14.160156 12.582031 14.066406 L 9.5 14.066406 C 9.5 14.339844 9.480469 15.460938 9.550781 16.878906 C 9.558594 17.054688 9.492188 17.109375 9.328125 17.105469 C 8.9375 17.105469 8.546875 17.101562 8.15625 17.105469 C 8 17.105469 7.929688 17.042969 7.933594 16.867188 C 7.96875 15.578125 8.050781 13.625 7.929688 8.660156 L 7.929688 8.539062 C 7.554688 8.523438 7.296875 8.5 7.261719 8.46875 C 7.148438 8.355469 8.597656 6.972656 8.75 6.972656 C 8.902344 6.972656 10.335938 8.355469 10.226562 8.46875 C 10.191406 8.5 9.921875 8.523438 9.578125 8.539062 L 9.578125 8.660156 C 9.484375 9.652344 9.5 11.730469 9.476562 12.726562 L 12.574219 12.726562 C 12.574219 12.550781 12.589844 11.386719 12.527344 9.5 C 12.523438 9.367188 12.5625 9.300781 12.691406 9.300781 C 13.117188 9.296875 13.546875 9.292969 13.972656 9.296875 C 14.105469 9.296875 14.148438 9.363281 14.144531 9.503906 C 14.003906 16.886719 14.121094 16.371094 14.121094 17.621094 C 14.464844 17.636719 14.769531 17.660156 14.804688 17.691406 C 14.914062 17.804688 13.507812 19.1875 13.351562 19.1875 Z M 13.351562 19.1875 " />
    </g>
</svg>